PathFileType  4	(X/Y/Z) C:\Users\wagnerel85475\Documents\Thesis\opencap-core\Data\3375ffbc-daeb-4a43-b4f7-ac9899cd4c71\MarkerData\PreAugmentation
DataRate	CameraRate	NumFrames	NumMarkers	Units	OrigDataRate	OrigDataStartFrame	OrigNumFrames
60.0	60.0	9	20	m	60.0	412	823
Frame#	Time	Neck			RShoulder			RElbow			RWrist			LShoulder			LElbow			LWrist			midHip			RHip			RKnee			RAnkle			LHip			LKnee			LAnkle			LBigToe			LSmallToe			LHeel			RBigToe			RSmallToe			RHeel			
		X1	Y1	Z1	X2	Y2	Z2	X3	Y3	Z3	X4	Y4	Z4	X5	Y5	Z5	X6	Y6	Z6	X7	Y7	Z7	X8	Y8	Z8	X9	Y9	Z9	X10	Y10	Z10	X11	Y11	Z11	X12	Y12	Z12	X13	Y13	Z13	X14	Y14	Z14	X15	Y15	Z15	X16	Y16	Z16	X17	Y17	Z17	X18	Y18	Z18	X19	Y19	Z19	X20	Y20	Z20	

412	6.8500000	-0.9394800	1.3749100	-0.0380000	-0.9307800	1.3632800	0.1269300	-1.0194700	1.0433800	0.2014100	-0.9587100	0.7695900	0.2745700	-0.9606600	1.4206600	-0.2119600	-0.8917100	1.6539600	-0.3992800	-0.8711600	1.9292700	-0.3596900	-0.8921700	0.7957300	-0.0326100	-0.8957300	0.7952500	0.0685400	-1.0044600	0.2981800	0.1060600	-1.0945200	-0.1970700	0.1605100	-0.9000600	0.7910300	-0.1592100	-1.0260000	0.2826300	-0.1503500	-1.0219000	-0.1882600	-0.2153300	-0.8192600	-0.2510400	-0.2504400	-0.8687700	-0.2370800	-0.2810500	-1.1178000	-0.2509700	-0.1845900	-0.8606800	-0.2626800	0.1957300	-0.8889200	-0.2390200	0.2417600	-1.1118700	-0.2513500	0.1444300
413	6.8666667	-0.9392500	1.3737400	-0.0379900	-0.9307600	1.3631900	0.1269100	-1.0149300	1.0435600	0.1996600	-0.9591400	0.7695800	0.2747100	-0.9629600	1.4206800	-0.2125900	-0.8831900	1.6525900	-0.4013700	-0.8570100	1.9294300	-0.3552400	-0.8922200	0.7956900	-0.0326500	-0.8957800	0.7952100	0.0685100	-1.0045900	0.2980200	0.1060300	-1.0945700	-0.1970300	0.1605100	-0.9002700	0.7909300	-0.1590900	-1.0254200	0.2845700	-0.1505400	-1.0219200	-0.1882800	-0.2153400	-0.8224300	-0.2496200	-0.2508300	-0.8688300	-0.2370900	-0.2810700	-1.1177800	-0.2519800	-0.1845800	-0.8606700	-0.2627100	0.1957000	-0.8892900	-0.2390800	0.2419100	-1.1137400	-0.2517700	0.1440600
414	6.8833333	-0.9391800	1.3732900	-0.0379800	-0.9307300	1.3631500	0.1269000	-1.0084100	1.0438000	0.1971300	-0.9596200	0.7695000	0.2748800	-0.9670400	1.4209500	-0.2137200	-0.8745900	1.6509500	-0.4043300	-0.8471200	1.9299700	-0.3521700	-0.8922100	0.7957000	-0.0326500	-0.8958500	0.7951200	0.0684900	-1.0046600	0.2979800	0.1060100	-1.0945800	-0.1970900	0.1605000	-0.8998300	0.7908900	-0.1590000	-1.0251900	0.2855600	-0.1506400	-1.0219100	-0.1883200	-0.2153400	-0.8262000	-0.2491100	-0.2517200	-0.8688900	-0.2371100	-0.2811000	-1.1183900	-0.2534800	-0.1844100	-0.8604800	-0.2627100	0.1957000	-0.8893000	-0.2390600	0.2419300	-1.1177800	-0.2527900	0.1432500
415	6.9000000	-0.9392700	1.3733700	-0.0379700	-0.9307000	1.3631900	0.1269100	-1.0038900	1.0440200	0.1953800	-0.9585400	0.7696300	0.2744400	-0.9688500	1.4207400	-0.2142600	-0.8693400	1.6497300	-0.4082800	-0.8457700	1.9304000	-0.3518200	-0.8918700	0.7957500	-0.0325600	-0.8959500	0.7951200	0.0685000	-1.0046600	0.2980000	0.1060000	-1.0945900	-0.1971100	0.1605000	-0.8993100	0.7909000	-0.1589400	-1.0254300	0.2845800	-0.1505700	-1.0218900	-0.1883500	-0.2153500	-0.8276500	-0.2492800	-0.2522100	-0.8689200	-0.2371100	-0.2811100	-1.1192400	-0.2558300	-0.1841700	-0.8600400	-0.2626200	0.1958300	-0.8892200	-0.2390400	0.2419100	-1.1201400	-0.2533800	0.1427700
416	6.9166667	-0.9394200	1.3734600	-0.0379700	-0.9307100	1.3632000	0.1269200	-1.0028100	1.0440100	0.1949600	-0.9541300	0.7700300	0.2726600	-0.9672200	1.4192600	-0.2137900	-0.8663000	1.6484000	-0.4127100	-0.8512900	1.9307300	-0.3535700	-0.8914700	0.7957900	-0.0324300	-0.8961400	0.7956300	0.0685400	-1.0046300	0.2980200	0.1059800	-1.0945500	-0.1971800	0.1605000	-0.9006300	0.7911100	-0.1593000	-1.0259100	0.2824300	-0.1504100	-1.0218600	-0.1883700	-0.2153500	-0.8287200	-0.2497500	-0.2518300	-0.8689200	-0.2371100	-0.2811200	-1.1199200	-0.2574700	-0.1840000	-0.8599200	-0.2626100	0.1961300	-0.8892000	-0.2390300	0.2419000	-1.1177300	-0.2528400	0.1432500
417	6.9333333	-0.9394200	1.3735400	-0.0379300	-0.9307400	1.3631800	0.1269200	-1.0033000	1.0440200	0.1951300	-0.9477800	0.7705900	0.2700800	-0.9633500	1.4167700	-0.2124600	-0.8625600	1.6456800	-0.4168300	-0.8599000	1.9305000	-0.3560700	-0.8927000	0.7956900	-0.0327100	-0.8964000	0.7967900	0.0685800	-1.0046200	0.2980200	0.1059700	-1.0945300	-0.1971700	0.1605100	-0.9058600	0.7916800	-0.1605300	-1.0263000	0.2809600	-0.1503000	-1.0218300	-0.1883800	-0.2153600	-0.8317700	-0.2505900	-0.2506800	-0.8689500	-0.2370200	-0.2811200	-1.1200200	-0.2579200	-0.1839700	-0.8616800	-0.2631100	0.1960300	-0.8892200	-0.2390500	0.2419000	-1.1136300	-0.2518500	0.1440800
418	6.9500000	-0.9390200	1.3734700	-0.0378200	-0.9308000	1.3631600	0.1269000	-1.0036600	1.0439600	0.1952500	-0.9433400	0.7710200	0.2682700	-0.9599200	1.4140700	-0.2111200	-0.8583000	1.6404600	-0.4207700	-0.8675600	1.9284100	-0.3582100	-0.8974700	0.7951500	-0.0339200	-0.8964500	0.7973200	0.0685500	-1.0046600	0.2980000	0.1059400	-1.0945000	-0.1971500	0.1605200	-0.9129500	0.7920400	-0.1622400	-1.0264000	0.2806000	-0.1503000	-1.0217800	-0.1883900	-0.2153700	-0.8352600	-0.2514700	-0.2495300	-0.8689800	-0.2370300	-0.2811100	-1.1196400	-0.2571700	-0.1840500	-0.8655700	-0.2641700	0.1943300	-0.8892400	-0.2390600	0.2418900	-1.1117700	-0.2513900	0.1444700
419	6.9666667	-0.9384700	1.3733300	-0.0377100	-0.9308600	1.3631300	0.1268700	-1.0036200	1.0438700	0.1952200	-0.9422400	0.7712200	0.2678200	-0.9576500	1.4118700	-0.2110500	-0.8553300	1.6319500	-0.4251600	-0.8694100	1.9220900	-0.3594700	-0.9043000	0.7945700	-0.0356700	-0.8961900	0.7966400	0.0684500	-1.0046900	0.2980200	0.1058800	-1.0944800	-0.1971100	0.1605200	-0.9161000	0.7927300	-0.1638900	-1.0263700	0.2806800	-0.1503500	-1.0217300	-0.1883900	-0.2153900	-0.8364800	-0.2518300	-0.2491700	-0.8690600	-0.2374700	-0.2810500	-1.1190300	-0.2557700	-0.1841800	-0.8678400	-0.2647300	0.1908600	-0.8892200	-0.2390500	0.2418700	-1.1118800	-0.2514300	0.1444600
420	6.9833333	-0.9395300	1.3734000	-0.0380400	-0.9307700	1.3630500	0.1268700	-1.0034900	1.0438600	0.1951400	-0.9428900	0.7712500	0.2680900	-0.9547800	1.4101200	-0.2129700	-0.8547200	1.6229900	-0.4304400	-0.8595600	1.9100000	-0.3590900	-0.9090800	0.7946400	-0.0368900	-0.8960700	0.7960300	0.0684000	-1.0047200	0.2982100	0.1058300	-1.0944500	-0.1970800	0.1605100	-0.9134800	0.7935100	-0.1661700	-1.0263900	0.2808800	-0.1503800	-1.0216800	-0.1883400	-0.2154000	-0.8350200	-0.2511900	-0.2496700	-0.8692200	-0.2383300	-0.2809500	-1.1187800	-0.2550300	-0.1842400	-0.8656400	-0.2641100	0.1881000	-0.8891600	-0.2390100	0.2418300	-1.1122900	-0.2515300	0.1443900
